<svg id="Layer_1" data-name="Layer 1" xmlns="http://www.w3.org/2000/svg" xmlns:xlink="http://www.w3.org/1999/xlink" viewBox="0 0 500 250"><defs><style>.cls-1{fill:url(#New_Gradient_Swatch_copy_2);}.cls-2{fill:url(#New_Gradient_Swatch_copy_7);}.cls-3{fill:url(#New_Gradient_Swatch_copy_2-2);}.cls-4{fill:url(#New_Gradient_Swatch_copy);}.cls-5{fill:url(#New_Gradient_Swatch_copy_2-3);}.cls-6{fill:url(#New_Gradient_Swatch_copy_2-4);}</style><linearGradient id="New_Gradient_Swatch_copy_2" x1="158.45" y1="64.46" x2="233.14" y2="64.46" gradientUnits="userSpaceOnUse"><stop offset="0" stop-color="#a32164"/><stop offset="0.22" stop-color="#a72264"/><stop offset="0.46" stop-color="#b42665"/><stop offset="0.7" stop-color="#c92d67"/><stop offset="0.94" stop-color="#e63669"/><stop offset="1" stop-color="#ee396a"/></linearGradient><linearGradient id="New_Gradient_Swatch_copy_7" x1="151.61" y1="90.48" x2="348.39" y2="90.48" gradientUnits="userSpaceOnUse"><stop offset="0" stop-color="#d0d2d3"/><stop offset="1" stop-color="#fff"/></linearGradient><linearGradient id="New_Gradient_Swatch_copy_2-2" x1="232.04" y1="190.09" x2="267.96" y2="190.09" xlink:href="#New_Gradient_Swatch_copy_2"/><linearGradient id="New_Gradient_Swatch_copy" x1="207.43" y1="122.22" x2="292.57" y2="122.22" gradientUnits="userSpaceOnUse"><stop offset="0" stop-color="#4b415e"/><stop offset="0.36" stop-color="#4f4562"/><stop offset="0.74" stop-color="#5b506f"/><stop offset="1" stop-color="#675b7c"/></linearGradient><linearGradient id="New_Gradient_Swatch_copy_2-3" x1="174.19" y1="178.88" x2="224.73" y2="178.88" xlink:href="#New_Gradient_Swatch_copy_2"/><linearGradient id="New_Gradient_Swatch_copy_2-4" x1="275.27" y1="178.88" x2="325.81" y2="178.88" xlink:href="#New_Gradient_Swatch_copy_2"/></defs><path class="cls-1" d="M171.88,38.33,175.22,44a28.53,28.53,0,0,0-4.95,6.67L163.92,49a2.6,2.6,0,0,0-3.16,1.88l-2.23,8.84a2.6,2.6,0,0,0,1.88,3.16l6.39,1.61A28.69,28.69,0,0,0,168,72.69l-5.67,3.39a2.6,2.6,0,0,0-.91,3.57l4.67,7.81a2.6,2.6,0,0,0,3.57.91l5.7-3.41A29.16,29.16,0,0,0,182,89.85l-1.63,6.47a2.61,2.61,0,0,0,1.89,3.17l8.83,2.23a2.6,2.6,0,0,0,3.16-1.88l1.65-6.52A28.45,28.45,0,0,0,204,92.13l3.44,5.78a2.6,2.6,0,0,0,3.57.9l7.82-4.67a2.59,2.59,0,0,0,.9-3.56l-3.44-5.78a29.14,29.14,0,0,0,4.89-6.55l6.51,1.64A2.59,2.59,0,0,0,230.82,78l2.24-8.83A2.61,2.61,0,0,0,231.17,66l-6.48-1.64a28.63,28.63,0,0,0-1.16-8.13l5.71-3.41a2.6,2.6,0,0,0,.9-3.57l-4.66-7.82a2.61,2.61,0,0,0-3.57-.9l-5.68,3.38a28.54,28.54,0,0,0-6.62-5l1.61-6.38a2.61,2.61,0,0,0-1.88-3.17l-8.83-2.23a2.61,2.61,0,0,0-3.17,1.89l-1.6,6.35a28.64,28.64,0,0,0-8.23,1.18L184.16,31a2.6,2.6,0,0,0-3.57-.9l-7.81,4.66A2.6,2.6,0,0,0,171.88,38.33Zm38,17.64a16.41,16.41,0,1,1-22.49-5.68A16.4,16.4,0,0,1,209.83,56Z"/><path class="cls-2" d="M321,74.13a27.9,27.9,0,0,0-47.6-28.25,54.75,54.75,0,0,0-61.39-10l-.6,2.35A30.17,30.17,0,0,1,216.46,42l4.65-2.78a4.17,4.17,0,0,1,5.7,1.44l4.66,7.82a4.13,4.13,0,0,1,.46,3.15,4.07,4.07,0,0,1-1.9,2.54L225.33,57a29.91,29.91,0,0,1,.89,6.19l5.33,1.35a4.16,4.16,0,0,1,3,5l-2.23,8.83a4.19,4.19,0,0,1-1.9,2.55,4.13,4.13,0,0,1-3.15.46L221.91,80a30.32,30.32,0,0,1-3.72,5L221,89.78a4.13,4.13,0,0,1,.46,3.15,4.07,4.07,0,0,1-1.9,2.54l-7.82,4.67a4.15,4.15,0,0,1-5.69-1.44l-2.84-4.76a30.33,30.33,0,0,1-6.15.9l-1.36,5.37a4.15,4.15,0,0,1-4,3.14,3.94,3.94,0,0,1-1-.13L181.86,101a4.16,4.16,0,0,1-3-5l1.34-5.32a30.06,30.06,0,0,1-5-3.73l-4.7,2.81a4.15,4.15,0,0,1-5.69-1.44l-.54-.9a35.74,35.74,0,0,0,23.13,63l121.93-.09A39.16,39.16,0,0,0,336.93,139a38.55,38.55,0,0,0,11.46-27.54A39.07,39.07,0,0,0,321,74.13Z"/><path class="cls-3" d="M251.68,222.2l15.59-15.6a2.3,2.3,0,0,0,.69-1.67,2.34,2.34,0,0,0-.69-1.67l-1.41-1.41a2.34,2.34,0,0,0-1.68-.69,2.38,2.38,0,0,0-1.69.69l-9.11,9.09V159.62a2.31,2.31,0,0,0-2.33-2.33h-2a2.4,2.4,0,0,0-2.43,2.33v51.43l-9.16-9.2a2.34,2.34,0,0,0-3.32,0l-1.41,1.41a2.38,2.38,0,0,0,0,3.35l15.59,15.59a2.39,2.39,0,0,0,3.36,0Z"/><path class="cls-4" d="M292.57,123.27v-2a2.39,2.39,0,0,0-2.33-2.43H209.76a2.39,2.39,0,0,0-2.33,2.43v2a2.3,2.3,0,0,0,2.33,2.32h80.48A2.3,2.3,0,0,0,292.57,123.27Z"/><path class="cls-5" d="M224,173.58,208.44,158a2.38,2.38,0,0,0-3.35,0l-15.6,15.6a2.34,2.34,0,0,0-.69,1.67,2.38,2.38,0,0,0,.69,1.67l1.42,1.41a2.32,2.32,0,0,0,1.67.69,2.37,2.37,0,0,0,1.69-.69l9.12-9.09v24.48H176.53a2.4,2.4,0,0,0-2.34,2.43v2a2.31,2.31,0,0,0,2.34,2.32h31.18a2.39,2.39,0,0,0,2.43-2.33v-29l9.17,9.2A2.27,2.27,0,0,0,221,179a2.32,2.32,0,0,0,1.67-.69l1.41-1.41a2.38,2.38,0,0,0,.69-1.67A2.34,2.34,0,0,0,224,173.58Z"/><path class="cls-6" d="M323.47,193.72H296.61V169.24l9.12,9.09a2.37,2.37,0,0,0,1.69.69,2.32,2.32,0,0,0,1.67-.69l1.42-1.41a2.38,2.38,0,0,0,.69-1.67,2.34,2.34,0,0,0-.69-1.67L294.91,158a2.38,2.38,0,0,0-3.35,0L276,173.58a2.34,2.34,0,0,0-.69,1.67,2.38,2.38,0,0,0,.69,1.67l1.41,1.41A2.32,2.32,0,0,0,279,179a2.27,2.27,0,0,0,1.65-.69l9.17-9.2v29a2.39,2.39,0,0,0,2.43,2.33h31.18a2.31,2.31,0,0,0,2.34-2.32v-2A2.4,2.4,0,0,0,323.47,193.72Z"/></svg>