<svg id="layer_1" data-name="layer 1" xmlns="http://www.w3.org/2000/svg" viewBox="0 0 83.3 84"><defs><style>.cls-1{fill:#f6921e;}.cls-2{fill:#e8ebec;}.cls-3{fill:#bdc3d8;}.cls-4{fill:#fff;}.cls-5{fill:#0d5183;}.cls-6{fill:#ec2024;}</style></defs><path class="cls-1" d="M79.88,45.18h-4.5a.84.84,0,0,1,0-1.68h4.5a.84.84,0,1,1,0,1.68Z" transform="translate(-0.7)"/><path class="cls-1" d="M77.63,47.44a.85.85,0,0,1-.85-.84h0V42.1a.85.85,0,0,1,.94-.76.87.87,0,0,1,.76.76v4.49a.85.85,0,0,1-.85.85Z" transform="translate(-0.7)"/><circle class="cls-2" cx="47.3" cy="69.25" r="14.75"/><circle class="cls-2" cx="12.64" cy="34.5" r="12.64"/><circle class="cls-2" cx="62.23" cy="21.07" r="21.07"/><rect class="cls-3" x="9.22" y="10.27" width="40.03" height="67.41" rx="4"/><path class="cls-4" d="M13.22,10.27h25.6a2,2,0,0,1,2,2v51.2a10,10,0,0,1-10,10H11.22a2,2,0,0,1-2-2V14.27a4,4,0,0,1,4-4Z"/><path class="cls-5" d="M45.73,78.47H14.13a5,5,0,0,1-5-5v-59a5,5,0,0,1,5-5h31.6a5,5,0,0,1,5,5v59A5,5,0,0,1,45.73,78.47ZM14.13,11.06a3.42,3.42,0,0,0-3.42,3.42v59a3.43,3.43,0,0,0,3.42,3.42h31.6a3.43,3.43,0,0,0,3.43-3.42v-59a3.43,3.43,0,0,0-3.43-3.42Z" transform="translate(-0.7)"/><rect class="cls-3" x="9.22" y="18.7" width="40.03" height="50.56" rx="2"/><path class="cls-4" d="M11.22,18.7h31.7a0,0,0,0,1,0,0V54a11,11,0,0,1-11,11H9.22a0,0,0,0,1,0,0V20.7A2,2,0,0,1,11.22,18.7Z"/><path class="cls-5" d="M47.84,70H12a2.9,2.9,0,0,1-2.9-2.89V20.8A2.89,2.89,0,0,1,12,17.91H47.84a2.89,2.89,0,0,1,2.9,2.89V67.15A2.9,2.9,0,0,1,47.84,70ZM12,19.49a1.32,1.32,0,0,0-1.32,1.31V67.15A1.32,1.32,0,0,0,12,68.46H47.84a1.32,1.32,0,0,0,1.32-1.31V20.8a1.32,1.32,0,0,0-1.32-1.31Z" transform="translate(-0.7)"/><path class="cls-5" d="M34.15,15.27H24.67a.79.79,0,1,1,0-1.58h9.48a.79.79,0,0,1,0,1.58Z" transform="translate(-0.7)"/><path class="cls-5" d="M20.45,74.52a1.07,1.07,0,0,1-.74-.3,1.12,1.12,0,0,1-.31-.75,1.06,1.06,0,0,1,1.8-.75,1.1,1.1,0,0,1,.31.75,1.08,1.08,0,0,1-.31.74A1.06,1.06,0,0,1,20.45,74.52Z" transform="translate(-0.7)"/><path class="cls-5" d="M28.88,73.47a1.06,1.06,0,0,1,1.05-1.06h0A1.07,1.07,0,0,1,31,73.47h0a1.06,1.06,0,0,1-1.06,1h0A1,1,0,0,1,28.88,73.47Z" transform="translate(-0.7)"/><path class="cls-5" d="M39.41,74.52a1.11,1.11,0,0,1-.75-.3,1.16,1.16,0,0,1-.3-.75,1.14,1.14,0,0,1,.3-.75,1.11,1.11,0,0,1,1.5,0,1.06,1.06,0,0,1,.31.75,1,1,0,0,1-.31.74A1.06,1.06,0,0,1,39.41,74.52Z" transform="translate(-0.7)"/><circle class="cls-5" cx="37.66" cy="14.48" r="1.05"/><path class="cls-4" d="M43.43,46.28a13.38,13.38,0,0,0,0-4.61l-4.84-.77a10.4,10.4,0,0,0-.51-1.24l2.87-4a14,14,0,0,0-3.26-3.26l-4,2.88a9.14,9.14,0,0,0-1.25-.52L31.71,30a13.47,13.47,0,0,0-2.3-.2h0a13.47,13.47,0,0,0-2.3.2l-.77,4.84a10.55,10.55,0,0,0-1.25.51l-4-2.87a14.41,14.41,0,0,0-3.26,3.26l2.88,4a9,9,0,0,0-.51,1.24l-4.84.77a14.08,14.08,0,0,0,0,4.61l4.84.77a9.1,9.1,0,0,0,.51,1.25l-2.88,4a14.61,14.61,0,0,0,3.26,3.26l4-2.88a10.6,10.6,0,0,0,1.25.52L27.1,58a14.57,14.57,0,0,0,2.3.18h0a14.57,14.57,0,0,0,2.3-.18l.77-4.84a10.6,10.6,0,0,0,1.25-.52l4,2.88A14.21,14.21,0,0,0,41,52.27l-2.87-4a10.55,10.55,0,0,0,.51-1.25Z" transform="translate(-0.7)"/><path class="cls-3" d="M43.43,46.28a13.38,13.38,0,0,0,0-4.61l-4.84-.77c0-.12-.1-.24-.15-.36A14.2,14.2,0,0,1,26,53c.12.05.24.12.37.16L27.1,58a14.57,14.57,0,0,0,2.3.18h0a14.57,14.57,0,0,0,2.3-.18l.77-4.84a10.6,10.6,0,0,0,1.25-.52l4,2.88A14.21,14.21,0,0,0,41,52.27l-2.87-4a10.55,10.55,0,0,0,.51-1.25Z" transform="translate(-0.7)"/><path class="cls-6" d="M29.4,59A15,15,0,0,1,27,58.79a.8.8,0,0,1-.65-.66l-.7-4.38c-.15-.06-.31-.12-.45-.19l-3.59,2.61a.8.8,0,0,1-.93,0,15,15,0,0,1-3.44-3.45.8.8,0,0,1,0-.92l2.61-3.59c-.07-.15-.13-.3-.19-.45l-4.38-.7a.77.77,0,0,1-.65-.65,14.92,14.92,0,0,1,0-4.87.77.77,0,0,1,.65-.65l4.38-.7c.06-.15.12-.3.19-.45l-2.6-3.59a.78.78,0,0,1,0-.92,15,15,0,0,1,3.44-3.45.8.8,0,0,1,.93,0l3.59,2.6.45-.19.7-4.38a.8.8,0,0,1,.65-.66,15.3,15.3,0,0,1,4.87,0,.79.79,0,0,1,.65.66l.7,4.38.45.19,3.59-2.6a.78.78,0,0,1,.92,0,15.06,15.06,0,0,1,3.45,3.45.8.8,0,0,1,0,.92L39,39.74c.07.15.13.3.19.45l4.38.7a.77.77,0,0,1,.65.65A14.72,14.72,0,0,1,44.42,44a14.51,14.51,0,0,1-.21,2.43.76.76,0,0,1-.65.65l-4.38.7c-.06.15-.12.3-.19.45l2.6,3.59a.8.8,0,0,1,0,.92,15.26,15.26,0,0,1-3.45,3.45.78.78,0,0,1-.92,0l-3.59-2.61-.45.19-.7,4.38a.79.79,0,0,1-.65.66A15.07,15.07,0,0,1,29.4,59Zm-1.61-1.67a14,14,0,0,0,3.23,0L31.7,53a.78.78,0,0,1,.53-.62,8.1,8.1,0,0,0,1.14-.48.81.81,0,0,1,.82.07l3.5,2.54A13.35,13.35,0,0,0,40,52.26l-2.53-3.5a.78.78,0,0,1-.07-.82,9.23,9.23,0,0,0,.48-1.14.78.78,0,0,1,.62-.53l4.26-.68A12.69,12.69,0,0,0,42.84,44a12.84,12.84,0,0,0-.11-1.62l-4.26-.68a.78.78,0,0,1-.62-.53A9.92,9.92,0,0,0,37.37,40a.78.78,0,0,1,.07-.82L40,35.7a13,13,0,0,0-2.28-2.29l-3.5,2.53a.77.77,0,0,1-.81.07,9.63,9.63,0,0,0-1.15-.47.81.81,0,0,1-.53-.63L31,30.64a13.42,13.42,0,0,0-3.23,0l-.68,4.27a.81.81,0,0,1-.53.63,8.73,8.73,0,0,0-1.15.47.79.79,0,0,1-.81-.07l-3.5-2.53a13.35,13.35,0,0,0-2.28,2.29l2.53,3.49a.79.79,0,0,1,.07.82A7.41,7.41,0,0,0,21,41.15a.81.81,0,0,1-.63.53l-4.26.68A12.47,12.47,0,0,0,16,44a12.32,12.32,0,0,0,.1,1.61l4.26.68a.81.81,0,0,1,.63.54,7.3,7.3,0,0,0,.47,1.13.79.79,0,0,1-.07.82l-2.53,3.5a13.35,13.35,0,0,0,2.28,2.29L24.62,52a.76.76,0,0,1,.82-.06,10,10,0,0,0,1.14.47.78.78,0,0,1,.53.62Zm15.64-11h0Z" transform="translate(-0.7)"/><path class="cls-4" d="M34,44a4.57,4.57,0,1,1-4.57-4.57A4.57,4.57,0,0,1,34,44Z" transform="translate(-0.7)"/><path class="cls-3" d="M31.44,39.9a4.54,4.54,0,0,1-4.07,6.61,4.48,4.48,0,0,1-2-.5,4.56,4.56,0,1,0,6.1-6.11Z" transform="translate(-0.7)"/><path class="cls-6" d="M29.41,49.33A5.36,5.36,0,1,1,34.77,44,5.36,5.36,0,0,1,29.41,49.33Zm0-9.14A3.78,3.78,0,1,0,33.19,44,3.78,3.78,0,0,0,29.41,40.19Z" transform="translate(-0.7)"/><path class="cls-1" d="M27.51,23.7H16.24a.79.79,0,0,1,0-1.58H27.51a.79.79,0,0,1,0,1.58Z" transform="translate(-0.7)"/><path class="cls-1" d="M34.14,23.7H31.72a.79.79,0,0,1,0-1.58h2.42a.79.79,0,0,1,0,1.58Z" transform="translate(-0.7)"/><path class="cls-1" d="M43.63,65.83H33.41a.79.79,0,1,1,0-1.58H43.63a.79.79,0,1,1,0,1.58Z" transform="translate(-0.7)"/><path class="cls-1" d="M29.2,65.83H26.77a.79.79,0,1,1,0-1.58H29.2a.79.79,0,1,1,0,1.58Z" transform="translate(-0.7)"/><circle class="cls-4" cx="60.39" cy="26.78" r="14.75"/><path class="cls-3" d="M69.81,14.9A14.73,14.73,0,0,1,49.22,35.49,14.73,14.73,0,1,0,69.81,14.9Z" transform="translate(-0.7)"/><path class="cls-5" d="M61.09,42.31A15.54,15.54,0,1,1,76.63,26.78,15.55,15.55,0,0,1,61.09,42.31Zm0-29.49a14,14,0,1,0,14,14A14,14,0,0,0,61.09,12.82Z" transform="translate(-0.7)"/><circle class="cls-4" cx="60.39" cy="59" r="14.75"/><path class="cls-3" d="M69.81,47.13A14.73,14.73,0,0,1,49.22,67.72,14.73,14.73,0,1,0,69.81,47.13Z" transform="translate(-0.7)"/><path class="cls-5" d="M61.09,74.54A15.54,15.54,0,1,1,76.63,59,15.55,15.55,0,0,1,61.09,74.54Zm0-29.49a14,14,0,1,0,14,14A14,14,0,0,0,61.09,45.05Z" transform="translate(-0.7)"/><path class="cls-5" d="M68.87,62.56a13.92,13.92,0,0,1-1.21,2.26c-.78,1.19-1.88,2.67-3.25,2.69-1.22,0-1.53-.8-3.18-.79s-2,.8-3.21.79c-1.37,0-2.41-1.35-3.2-2.55-2.19-3.33-2.41-7.24-1.06-9.32a4.84,4.84,0,0,1,3.89-2.35c1.45,0,2.37.8,3.56.8s1.88-.8,3.55-.8a4.75,4.75,0,0,1,3.57,1.88A4.08,4.08,0,0,0,68.87,62.56Z" transform="translate(-0.7)"/><path class="cls-5" d="M63.49,52a4.06,4.06,0,0,0,.9-3,4.42,4.42,0,0,0-2.83,1.53,3.76,3.76,0,0,0-.93,2.94A3.71,3.71,0,0,0,63.49,52Z" transform="translate(-0.7)"/><path class="cls-5" d="M63.88,26.12l2.42-2.29L55.51,17.9a1.09,1.09,0,0,0-.49-.13Z" transform="translate(-0.7)"/><path class="cls-5" d="M54,18.35a1.16,1.16,0,0,0-.14.56v16a1.12,1.12,0,0,0,.14.55L63,26.92Z" transform="translate(-0.7)"/><path class="cls-5" d="M70.08,25.91l-2.72-1.49-2.64,2.5,2.64,2.49,2.72-1.49A1.15,1.15,0,0,0,70.08,25.91Z" transform="translate(-0.7)"/><path class="cls-5" d="M63.88,27.71,55,36.06a1.09,1.09,0,0,0,.49-.13L66.3,30Z" transform="translate(-0.7)"/><path class="cls-1" d="M55.29,7.68h-4.5a.85.85,0,0,1,0-1.69h4.5a.85.85,0,0,1,0,1.69Z" transform="translate(-0.7)"/><path class="cls-1" d="M53.05,9.93a.83.83,0,0,1-.85-.83h0V4.59a.85.85,0,0,1,1.69,0v4.5a.84.84,0,0,1-.84.84Z" transform="translate(-0.7)"/><path class="cls-1" d="M78,76.43H73.5a.84.84,0,0,1,0-1.68H78a.84.84,0,0,1,0,1.68Z" transform="translate(-0.7)"/><path class="cls-1" d="M75.76,78.69a.84.84,0,0,1-.85-.83h0V73.35a.85.85,0,0,1,1.69,0v4.5a.85.85,0,0,1-.84.84Z" transform="translate(-0.7)"/></svg>